# xmcd
#
# Track frame offsets:
#	187
#	16965
#	31367
#	44352
#	61427
#	76452
#	94527
#	102702
#	120777
#	142517
#	152167
#	167680
#	185427
#	198542
#	217880
#	234632
#
# Disc length: 3351 seconds
#
# Revision: 1
# Processed by: cddbd v1.5.1PL0 Copyright (c) Steve Scherf et al.
# Submitted via: CDex 1.50Beta5
#
DISCID=cb0d1510
DTITLE=リチャード・クレイダーマン - エレアナの瞳
DYEAR=1998
DGENRE=Easy Listening
TTITLE0=エレアナの瞳
TTITLE1=悲しみのピアノ
TTITLE2=ブルー・コンチェルト
TTITLE3=孤独の路
TTITLE4=戯れ
TTITLE5=サファイアの輝き
TTITLE6=人形のように
TTITLE7=フィンランド讃歌
TTITLE8=英雄に捧ぐ
TTITLE9=海の精霊
TTITLE10=鳩
TTITLE11=最後の春
TTITLE12=愛の復活
TTITLE13=ローズ・パステル
TTITLE14=エレアナの瞳
TTITLE15=さよならの時
EXTD=
EXTT0=
EXTT1=
EXTT2=
EXTT3=
EXTT4=
EXTT5=
EXTT6=
EXTT7=
EXTT8=
EXTT9=
EXTT10=
EXTT11=
EXTT12=
EXTT13=
EXTT14=
EXTT15=
PLAYORDER=
